<svg width="120" height="120" viewBox="0 0 120 120" fill="none" xmlns="http://www.w3.org/2000/svg">
<path fill-rule="evenodd" clip-rule="evenodd" d="M91.4062 0C108.75 0 120 11.25 120 28.5938V91.4062C120 108.75 108.75 120 91.4062 120H28.5938C11.25 120 0 108.75 0 91.4062V28.5938C0 11.25 11.25 0 28.5938 0H91.4062Z" fill="#8F00FF"/>
<path fill-rule="evenodd" clip-rule="evenodd" d="M44 83.1032C44 80.8887 45.7941 79.0934 47.9968 79.0934H68.0032C70.2106 79.0934 72 80.8812 72 83.1032V89.0934H44V83.1032ZM37 94.0934H79V99.0934H37V94.0934ZM37.0283 38.5336V30.9926C37.0283 26.0261 41.0621 22 46.034 22H68.7512L82.2753 36.581C83.0266 37.391 82.9954 38.6789 82.213 39.4505L83.0384 38.6366C80.2862 41.3505 75.839 41.323 73.1189 38.5886L71.975 37.4387C69.2488 34.6982 67.0388 35.601 67.0388 39.4813V70.5379C67.0388 72.4755 65.4673 74.0463 63.5308 74.0463H62.4956C60.5582 74.0463 58.9876 72.4818 58.9876 70.5492V53.024C58.9876 51.9177 58.0825 51.0209 56.9907 51.0209H57.0821C55.9793 51.0209 55.0852 51.9079 55.0852 53.0158V58.8257C55.0852 60.7582 53.52 62.3249 51.5818 62.3249H51.4564C49.5215 62.3249 47.953 60.7531 47.953 58.8257V53.0158C47.953 51.9141 47.0618 51.0209 45.9432 51.0209H46.0353C44.9253 51.0209 44.0255 51.9183 44.0255 53.0138V56.7071C44.0255 58.6392 42.4552 60.2056 40.5269 60.2056C38.5947 60.2056 37.0283 58.647 37.0283 56.6995V38.5336Z" fill="white"/>
</svg>
